<svg xmlns="http://www.w3.org/2000/svg" xmlns:xlink="http://www.w3.org/1999/xlink" version="1.1" enable-background="new 0 0 1000 1000" xml:space="preserve" width="1000" height="1000"><rect id="backgroundrect" width="100%" height="100%" x="0" y="0" fill="none" stroke="none"/>
<metadata> Svg Vector Icons : http://www.onlinewebfonts.com/icon </metadata>

<g class="currentLayer" style=""><title>Layer 1</title><g id="svg_1" class="selected" fill="#ffffff" fill-opacity="1"><g id="svg_2" fill="#ffffff" fill-opacity="1"><path d="M972,456.5L604.7,89.5c-24-24-62.8-24-86.8,0c-24,23.9-24,62.8,0,86.7l262.8,262.6H71.3C37.4,438.8,10,466.2,10,500c0,33.8,27.4,61.2,61.3,61.2h709.5L518,823.8c-24,24-24,62.8,0,86.7c24,24,62.8,24,86.8,0L972,543.5c12-12,18-27.7,18-43.4C990,484.3,984,468.5,972,456.5L972,456.5z" id="svg_3" fill="#ffffff" fill-opacity="1"/></g></g></g></svg>