<svg xmlns="http://www.w3.org/2000/svg" xmlns:xlink="http://www.w3.org/1999/xlink" version="1.1" enable-background="new 0 0 1000 1000" xml:space="preserve" width="1000" height="1000"><rect id="backgroundrect" width="100%" height="100%" x="0" y="0" fill="none" stroke="none"/>
<metadata> Svg Vector Icons : http://www.onlinewebfonts.com/icon </metadata>

<g class="currentLayer" style=""><title>Layer 1</title><g id="svg_1" class="selected" fill="#ffffff" fill-opacity="1"><path d="M300.1,598" id="svg_2" fill="#ffffff" fill-opacity="1"/><path d="M881.1,990H118.9C58.8,990,10,941.3,10,881.1V118.9C10,58.8,58.8,10,118.9,10h762.2C941.3,10,990,58.8,990,118.9v762.2C990,941.3,941.3,990,881.1,990z M805.6,340.3l-38.2-37.4c-21.1-20.7-55.3-20.7-76.4,0L423.6,564.6L309,452.4c-21.1-20.7-55.3-20.7-76.4,0l-38.2,37.4c-21.1,20.7-21.1,54.1,0,74.8l152.8,149.6c0,0,0,0,0,0l38.2,37.4c21.1,20.7,55.3,20.7,76.4,0l343.8-336.5C826.7,394.4,826.7,360.9,805.6,340.3z" id="svg_3" fill="#ffffff" fill-opacity="1"/></g></g></svg>