<?xml version="1.0" encoding="utf-8"?>
<!-- Svg Vector Icons : http://www.onlinewebfonts.com/icon -->
<!DOCTYPE svg PUBLIC "-//W3C//DTD SVG 1.1//EN" "http://www.w3.org/Graphics/SVG/1.1/DTD/svg11.dtd">
<svg version="1.1" xmlns="http://www.w3.org/2000/svg" xmlns:xlink="http://www.w3.org/1999/xlink" x="0px" y="0px" viewBox="0 0 1000 1000" enable-background="new 0 0 1000 1000" xml:space="preserve">
<metadata> Svg Vector Icons : http://www.onlinewebfonts.com/icon </metadata>
<g><path d="M947.4,862.2H52.6c-23.5,0-42.6,19.1-42.6,42.6c0,11.7,4.2,21.8,12.5,30.1c8.3,8.3,18.4,12.5,30.1,12.5h894.8c11.8,0,21.8-4.2,30.1-12.5c8.3-8.3,12.5-18.3,12.5-30.1C990,881.2,970.9,862.2,947.4,862.2z"/><path d="M478.7,768.9c5.4,5.2,12.7,7.9,21.3,7.9c8.6,0,16-2.7,21.3-7.9l271.3-261c6.7-6.5,8-14.8,3.3-22.3c-4.7-7.5-29.5-6.9-40.3-6.9H649.1V95.3c0-23.2-12.4-42.6-42.6-42.6h-213c-30.2,0-42.6,19.4-42.6,42.6v383.5H223.1c-10.8,0-14.3-0.6-19,6.9c-4.7,7.5-3.5,15.8,3.3,22.3L478.7,768.9z"/></g>
</svg>