<svg xmlns="http://www.w3.org/2000/svg" xmlns:xlink="http://www.w3.org/1999/xlink" version="1.1" enable-background="new 0 0 1000 1000" xml:space="preserve" width="1000" height="1000"><rect id="backgroundrect" width="100%" height="100%" x="0" y="0" fill="none" stroke="none"/>
<metadata> Svg Vector Icons : http://www.onlinewebfonts.com/icon </metadata>

<g class="currentLayer" style=""><title>Layer 1</title><g id="svg_1" class="selected"><path d="M28.751630020928225,519.0007703358553 C89.19809855112135,669.2475762087034 252.33196878066065,744.4221182894003 518.1532407095459,744.4221182894003 H643.4441441773737 v143.18960396323195 c0,9.716437411790741 3.5797400990807984,18.103257072494323 10.636942008697229,25.160458982110754 c7.057201909616433,7.057201909616433 15.444021570320015,10.636942008697229 25.160458982110754,10.636942008697229 s18.103257072494323,-3.5797400990807984 25.160458982110754,-10.636942008697229 l286.3792079264639,-286.3792079264639 C997.8384139863732,619.3357713986627 1001.4181540854538,610.9489517379592 1001.4181540854538,601.2325143261684 c0,-9.716437411790741 -3.5797400990807984,-18.103257072494323 -10.636942008697229,-25.160458982110754 l-286.3792079264639,-286.3792079264639 c-7.057201909616433,-7.057201909616433 -15.444021570320015,-10.636942008697229 -25.160458982110754,-10.636942008697229 s-18.103257072494323,3.5797400990807984 -25.160458982110754,10.636942008697229 c-7.057201909616433,7.057201909616433 -10.636942008697229,15.444021570320015 -10.636942008697229,25.160458982110754 v143.18960396323195 h-125.29090346782795 c-36.51334901062415,0 -69.24240134507716,-1.1250611739968228 -98.18715700335903,-3.3751835219904667 s-57.58267645092827,-6.238975601255105 -86.1183189550295,-12.06883804832955 c-28.53564250410122,-5.829862447074445 -53.286988332031314,-13.7052906650522 -74.35631577233545,-23.728562942478433 c-21.06932744030413,-10.125550565971402 -40.70675884097593,-23.012614922662276 -59.014572490560596,-38.86574964716295 c-18.307813649584652,-15.853134724500679 -33.24044377717884,-34.67233981681116 -44.79789038278256,-56.45761527693145 c-11.55744660560372,-21.78527546012029 -20.5579359975783,-47.6616824620472 -27.1037464644689,-77.4246644286904 c-6.545810466890603,-29.865260255188375 -9.818715700335906,-63.617095475093045 -9.818715700335906,-101.255505659714 c0,-20.455657709033133 0.9205045969064912,-43.468272631695406 2.7615137907194742,-68.8332881908965 c0,-2.2501223479936447 0.409113154180663,-6.648088755435769 1.4318960396323206,-13.091620933781206 c0.9205045969064912,-6.545810466890603 1.4318960396323206,-11.455168317058554 1.4318960396323206,-14.83035183904902 c0,-5.625305869984111 -1.534174328177486,-10.227828854516567 -4.70480127307762,-14.012125530687696 c-3.170626944900138,-3.682018387625964 -7.568593352342259,-5.625305869984111 -13.19389922232637,-5.625305869984111 c-5.93214073561961,0 -11.148333451423058,3.170626944900138 -15.648578147410348,9.511880834700408 c-2.5569572136291416,3.3751835219904667 -5.011636138713118,7.466315063797094 -7.261758486706764,12.27339462541988 c-2.2501223479936447,4.807079561622786 -4.807079561622786,10.432385431606898 -7.568593352342259,16.773639321407167 c-2.7615137907194742,6.341253889800272 -4.807079561622786,10.84149858578756 -5.829862447074445,13.398455799416702 C22.81948928530879,186.80088914115703 -0.9090736571696926,270.87364232528324 -0.9090736571696926,332.7520068951084 C-0.9090736571696926,406.9037660903536 9.011920331711364,468.9866872372693 28.751630020928225,519.0007703358553 z" id="svg_2"/></g></g></svg>