<svg xmlns="http://www.w3.org/2000/svg" xmlns:xlink="http://www.w3.org/1999/xlink" version="1.1" enable-background="new 0 0 1000 1000" xml:space="preserve" width="1000" height="1000" style=""><rect id="backgroundrect" width="100%" height="100%" x="0" y="0" fill="none" stroke="none"/>
<metadata> Svg Vector Icons : http://www.onlinewebfonts.com/icon </metadata>

<g class="currentLayer" style=""><title>Layer 1</title><g id="svg_1" class="selected" fill="#ffffff" fill-opacity="1"><path d="M500,10C229.4,10,10,229.4,10,500c0,270.6,219.4,490,490,490c270.6,0,490-219.4,490-490C990,229.4,770.6,10,500,10z M500,850c-193.3,0-350-156.7-350-350c0-193.3,156.7-350,350-350c193.3,0,350,156.7,350,350C850,693.3,693.3,850,500,850z M500,290c-116,0-210,94-210,210c0,116,94,210,210,210c116,0,210-94,210-210C710,384,616,290,500,290z" id="svg_2" fill="#ffffff" fill-opacity="1"/></g></g></svg>