<?xml version="1.0" encoding="utf-8"?>
<!-- Svg Vector Icons : http://www.onlinewebfonts.com/icon -->
<!DOCTYPE svg PUBLIC "-//W3C//DTD SVG 1.1//EN" "http://www.w3.org/Graphics/SVG/1.1/DTD/svg11.dtd">
<svg version="1.1" xmlns="http://www.w3.org/2000/svg" xmlns:xlink="http://www.w3.org/1999/xlink" x="0px" y="0px" viewBox="0 0 1000 1000" enable-background="new 0 0 1000 1000" xml:space="preserve">
<metadata> Svg Vector Icons : http://www.onlinewebfonts.com/icon </metadata>
<g><path d="M255,908.4h490v-245H255V908.4L255,908.4z M826.6,908.4h81.7V336.7c0-6-2.1-14.1-6.4-24.6c-4.3-10.4-8.5-17.8-12.8-22L709.9,110.8c-4.3-4.3-11.5-8.5-21.7-12.8c-10.2-4.2-18.5-6.4-24.9-6.4v265.4c0,17-6,31.5-17.9,43.4c-11.9,11.9-26.4,17.9-43.4,17.9H234.6c-17,0-31.5-6-43.4-17.9c-11.9-11.9-17.9-26.4-17.9-43.4V91.6H91.6v816.7h81.7V642.9c0-17,6-31.5,17.9-43.4c11.9-11.9,26.4-17.9,43.4-17.9h530.8c17,0,31.5,6,43.4,17.9s17.9,26.4,17.9,43.4V908.4L826.6,908.4z M581.6,316.2V112.1c0-5.5-2-10.3-6.1-14.4s-8.8-6.1-14.4-6.1H438.7c-5.5,0-10.3,2-14.4,6.1c-4,4-6.1,8.8-6.1,14.4v204.2c0,5.5,2,10.3,6.1,14.4c4,4,8.8,6.1,14.4,6.1h122.5c5.5,0,10.3-2,14.4-6.1C579.6,326.6,581.6,321.8,581.6,316.2z M990,336.7v592.1c0,17-6,31.5-17.9,43.4S945.8,990,928.8,990H71.2c-17,0-31.5-6-43.4-17.9S10,945.8,10,928.8V71.2c0-17,6-31.5,17.9-43.4C39.8,16,54.2,10,71.2,10h592.1c17,0,35.7,4.3,56.1,12.8c20.4,8.5,36.6,18.7,48.5,30.6L946.6,232c11.9,11.9,22.1,28.1,30.6,48.5C985.7,300.9,990,319.6,990,336.7L990,336.7z"/></g>
</svg>