<?xml version="1.0" encoding="utf-8"?>
<!-- Svg Vector Icons : http://www.onlinewebfonts.com/icon -->
<!DOCTYPE svg PUBLIC "-//W3C//DTD SVG 1.1//EN" "http://www.w3.org/Graphics/SVG/1.1/DTD/svg11.dtd">
<svg version="1.1" xmlns="http://www.w3.org/2000/svg" xmlns:xlink="http://www.w3.org/1999/xlink" x="0px" y="0px" viewBox="0 0 1000 1000" enable-background="new 0 0 1000 1000" xml:space="preserve">
<metadata> Svg Vector Icons : http://www.onlinewebfonts.com/icon </metadata>
<g><path d="M445.8,717.2L312.3,850.6c-45,45-117.9,45-162.9,0l-0.1-0.1c-45-45-45-117.9,0-162.9L371.1,466c45-45,117.6-44.6,162.6,0.4l0.1,0.1c7.4,7.4,21.2,21.2,22.6,19.7C576.4,497,602,494,619,477c16.8-16.8,20-42.2,9.4-62.2c0.1,0,0.1-0.1,0.2-0.2c-0.3-0.4-0.6-0.7-0.8-1.1c-2.3-4.1-5.2-7.9-8.7-11.4c-1.2-1.2-2.5-2.3-3.7-3.4c-2.2-2.4-4.4-4.8-6.8-7.1c-86.2-86.2-226.4-86.2-312.5-0.1L74.6,612.9c-86.1,86.1-86.1,226.3,0,312.4c86.2,86.2,226.3,86.2,312.5,0.1l206.3-206.2C546.6,740.6,492.1,739.9,445.8,717.2z"/><path d="M925.4,74.7c-86.2-86.2-226.3-86.2-312.5-0.1L406.7,280.8c46.7-21.5,101.4-20.6,147.5,2l133.5-133.5c45-45,117.9-45,162.9,0l0.1,0.1c45,45,45,117.9,0,162.9L628.9,534c-45,45-117.6,44.6-162.5-0.4l-0.1-0.1c-7.4-7.4-21.2-21.2-22.6-19.7C423.6,503,398,506,381.1,523c-16.8,16.8-20,42.2-9.4,62.2c-0.1,0-0.1,0.1-0.2,0.1c0.3,0.4,0.6,0.7,0.9,1.1c2.3,4.1,5.2,7.9,8.7,11.4c1.2,1.2,2.5,2.3,3.8,3.4c2.2,2.4,4.4,4.8,6.8,7.1c86.2,86.2,226.4,86.2,312.5,0.1l221.3-221.3C1011.5,300.9,1011.5,160.8,925.4,74.7z"/></g>
</svg>