<svg xmlns="http://www.w3.org/2000/svg" xmlns:xlink="http://www.w3.org/1999/xlink" version="1.1" enable-background="new 0 0 1000 1000" xml:space="preserve" width="1000" height="1000" style=""><rect id="backgroundrect" width="100%" height="100%" x="0" y="0" fill="none" stroke="none"/>
<metadata> Svg Vector Icons : http://www.onlinewebfonts.com/icon </metadata>

<g class="currentLayer" style=""><title>Layer 1</title><g id="svg_1" class="selected" fill="#ffffff" fill-opacity="1"><path d="M157,206h343v49H157V206z" id="svg_2" fill="#ffffff" fill-opacity="1"/><path d="M157,745h343v49H157V745z" id="svg_3" fill="#ffffff" fill-opacity="1"/><path d="M255,255h147v490H255V255z" id="svg_4" fill="#ffffff" fill-opacity="1"/><path d="M892,990H108c-53.9,0-98-44.1-98-98V108c0-53.9,44.1-98,98-98h784c53.9,0,98,44.1,98,98v784C990,945.9,945.9,990,892,990z M108,108v784h784V108H108z" id="svg_5" fill="#ffffff" fill-opacity="1"/></g></g></svg>